<svg xmlns="http://www.w3.org/2000/svg" xmlns:xlink="http://www.w3.org/1999/xlink" width="500" zoomAndPan="magnify" viewBox="0 0 375 374.999991" height="500" preserveAspectRatio="xMidYMid meet" version="1.0"><defs><clipPath id="5e1fd4e60d"><path d="M 87.90625 87.90625 L 287.09375 87.90625 L 287.09375 287.09375 L 87.90625 287.09375 Z M 87.90625 87.90625 " clip-rule="nonzero"/></clipPath><clipPath id="2133f1460b"><path d="M 187.5 87.90625 C 132.496094 87.90625 87.90625 132.496094 87.90625 187.5 C 87.90625 242.503906 132.496094 287.09375 187.5 287.09375 C 242.503906 287.09375 287.09375 242.503906 287.09375 187.5 C 287.09375 132.496094 242.503906 87.90625 187.5 87.90625 " clip-rule="nonzero"/></clipPath><clipPath id="2bfd4ba677"><path d="M 132.125 95.476562 L 243.121094 95.476562 L 243.121094 279.828125 L 132.125 279.828125 Z M 132.125 95.476562 " clip-rule="nonzero"/></clipPath><clipPath id="6120978ac9"><path d="M 87.90625 87.90625 L 287.40625 87.90625 L 287.40625 287.40625 L 87.90625 287.40625 Z M 87.90625 87.90625 " clip-rule="nonzero"/></clipPath><clipPath id="5ff00ea1dc"><path d="M 112.6875 193 L 129 193 L 129 209 L 112.6875 209 Z M 112.6875 193 " clip-rule="nonzero"/></clipPath><clipPath id="801a354d03"><path d="M 261 209 L 262.6875 209 L 262.6875 211 L 261 211 Z M 261 209 " clip-rule="nonzero"/></clipPath><clipPath id="c2b8e65d04"><path d="M 193.414062 262.058594 L 193.878906 262.058594 L 193.878906 262.492188 L 193.414062 262.492188 Z M 193.414062 262.058594 " clip-rule="nonzero"/></clipPath><clipPath id="bb4eb288ae"><path d="M 112.6875 201 L 114 201 L 114 203 L 112.6875 203 Z M 112.6875 201 " clip-rule="nonzero"/></clipPath><clipPath id="5d2ea7bc2c"><path d="M 192 112.5 L 194 112.5 L 194 114 L 192 114 Z M 192 112.5 " clip-rule="nonzero"/></clipPath></defs><g clip-path="url(#5e1fd4e60d)"><g clip-path="url(#2133f1460b)"><path fill="#ffbd59" d="M 87.90625 87.90625 L 287.09375 87.90625 L 287.09375 287.09375 L 87.90625 287.09375 Z M 87.90625 87.90625 " fill-opacity="1" fill-rule="nonzero"/></g></g><g clip-path="url(#2bfd4ba677)"><path fill="#000000" d="M 139.25 163.273438 C 138.847656 162.546875 138.253906 162 138.210938 161.535156 C 138.179688 161.222656 138.632812 159.996094 139.164062 160.320312 C 139.371094 160.445312 139.367188 161.617188 139.425781 161.796875 C 139.53125 162.125 139.773438 162.394531 139.945312 162.75 C 140.433594 163.765625 140.929688 164.929688 141.164062 165.960938 C 140.054688 165.40625 139.878906 164.398438 139.25 163.273438 Z M 189.015625 96.183594 C 189.070312 96.445312 189.199219 96.101562 189.363281 96.183594 C 189.265625 96.40625 189.019531 96.578125 188.839844 96.707031 C 188.441406 96.992188 188.054688 97.226562 187.625 97.574219 C 187.445312 97.71875 187.285156 97.902344 187.105469 98.007812 C 186.613281 98.285156 186.019531 98.328125 185.539062 98.613281 C 185.144531 98.855469 184.714844 99.347656 184.324219 99.742188 C 184.1875 99.878906 183.941406 100.007812 183.890625 100.089844 C 183.8125 100.214844 183.867188 100.472656 183.804688 100.609375 C 183.671875 100.890625 183.320312 101.128906 183.109375 101.394531 C 183.003906 101.519531 182.960938 101.683594 182.847656 101.824219 C 182.734375 101.964844 182.542969 102.078125 182.5 102.171875 C 182.449219 102.296875 182.53125 102.640625 182.5 102.78125 C 182.476562 102.886719 182.378906 103.042969 182.328125 103.214844 C 182.125 103.859375 181.914062 104.570312 181.632812 105.296875 C 181.523438 105.574219 181.332031 105.851562 181.285156 106.078125 C 181.226562 106.367188 181.328125 106.636719 181.285156 106.945312 C 181.246094 107.253906 181.011719 107.5625 180.9375 107.902344 C 180.886719 108.128906 180.964844 108.378906 180.9375 108.59375 C 180.921875 108.714844 180.808594 108.761719 180.761719 108.941406 C 180.730469 109.078125 180.804688 109.242188 180.761719 109.378906 C 180.691406 109.625 180.511719 109.890625 180.417969 110.15625 C 180.300781 110.488281 180.304688 110.898438 180.242188 111.023438 C 180.027344 111.460938 179.378906 111.921875 178.941406 112.328125 C 177.730469 113.441406 176.683594 114.082031 175.117188 115.019531 C 174.496094 115.390625 174.289062 115.808594 173.730469 115.105469 C 173.507812 115.3125 173.371094 115.617188 173.121094 115.796875 C 172.792969 116.039062 172.296875 116.125 171.90625 116.320312 C 171.722656 116.410156 171.589844 116.574219 171.386719 116.664062 C 170.910156 116.878906 170.613281 116.972656 170.167969 117.273438 C 168.875 118.152344 167.34375 119.175781 166.085938 120.226562 C 164.636719 121.433594 163.230469 122.6875 161.660156 123.871094 C 160.878906 124.457031 160.089844 125.058594 159.3125 125.605469 C 158.910156 125.886719 158.496094 126.128906 158.097656 126.386719 C 156.953125 127.128906 155.710938 128.019531 154.625 128.988281 C 154.265625 129.3125 153.964844 129.636719 153.582031 129.945312 C 153.042969 130.378906 152.523438 130.691406 152.105469 131.246094 C 151.71875 131.753906 151.128906 132.835938 150.976562 133.589844 C 150.910156 133.917969 151.082031 134.59375 150.886719 135.066406 C 150.71875 135.484375 149.953125 135.75 149.585938 136.105469 C 149.351562 136.332031 149.136719 136.625 148.890625 136.886719 C 148.21875 137.609375 147.625 138.496094 146.894531 139.320312 C 145.992188 140.335938 144.996094 141.34375 144.113281 142.355469 C 143.636719 142.902344 143.109375 143.378906 142.726562 143.917969 C 142.316406 144.492188 142.042969 145.121094 141.683594 145.742188 C 140.980469 146.957031 140.480469 148.351562 139.597656 149.472656 C 139.375 149.757812 139.0625 150.039062 138.730469 150.339844 C 138.425781 150.617188 138.011719 150.867188 137.863281 151.210938 C 137.679688 151.621094 137.800781 152.085938 137.6875 152.511719 C 137.507812 153.195312 136.972656 153.960938 136.558594 154.59375 C 136.347656 154.914062 136.097656 155.222656 135.863281 155.546875 C 135.402344 156.195312 135.105469 156.546875 134.5625 157.109375 C 134.355469 157.320312 134.078125 157.546875 133.953125 157.800781 C 133.863281 157.988281 133.863281 158.363281 133.78125 158.585938 C 133.664062 158.890625 133.386719 159.191406 133.257812 159.539062 C 133.027344 160.164062 132.992188 161.074219 132.738281 161.882812 C 132.488281 162.675781 132.175781 163.402344 132.132812 164.054688 C 132.105469 164.417969 132.195312 164.835938 132.214844 165.269531 C 132.246094 165.851562 132.144531 166.480469 132.214844 167.089844 C 132.265625 167.503906 132.542969 167.957031 132.652344 168.480469 C 132.839844 169.355469 132.730469 170.003906 133.171875 170.128906 C 134.167969 170.410156 134.441406 168.488281 134.390625 167.785156 C 134.882812 168.023438 135.214844 168.910156 135.691406 169.519531 C 135.742188 169.589844 135.808594 169.609375 135.863281 169.691406 C 135.976562 169.859375 136.320312 170.289062 136.644531 170.300781 C 137.003906 170.3125 137.515625 169.875 137.601562 169.519531 C 137.78125 168.789062 137.367188 168.078125 137.082031 167.523438 C 136.9375 167.242188 136.824219 166.9375 136.644531 166.65625 C 136.488281 166.402344 136.210938 166.210938 136.125 165.960938 C 136 165.597656 136.003906 164.988281 135.863281 164.398438 C 135.726562 163.820312 135.292969 162.699219 135.777344 163.011719 C 136.070312 163.199219 136.039062 163.433594 136.296875 163.792969 C 136.429688 163.972656 136.636719 164.082031 136.734375 164.226562 C 137.304688 165.085938 137.710938 166.035156 138.382812 166.832031 C 138.816406 167.34375 139.234375 167.621094 139.773438 168.132812 C 140.1875 168.523438 140.835938 169.277344 141.335938 169.257812 C 142 169.234375 142.269531 168.582031 142.203125 167.785156 C 143 167.945312 142.859375 168.730469 143.765625 168.652344 C 144.433594 168.597656 144.675781 167.839844 144.636719 167.179688 C 144.597656 166.484375 144.101562 165.761719 143.765625 165.179688 C 143.425781 164.582031 143.195312 163.65625 142.898438 162.835938 C 142.53125 161.820312 142.269531 161.0625 142.117188 159.710938 C 142.054688 159.179688 142.039062 158.621094 142.03125 158.0625 C 142.570312 157.992188 142.824219 158.257812 143.421875 158.324219 C 143.90625 158.378906 145.050781 158.152344 145.15625 158.238281 C 145.445312 158.46875 144.777344 160.230469 144.808594 160.757812 C 144.839844 161.210938 145.207031 162.140625 145.589844 162.492188 C 145.804688 162.683594 146.476562 163.09375 147.066406 162.921875 C 147.769531 162.722656 147.929688 161.089844 148.109375 160.058594 C 148.175781 159.695312 148.273438 159.265625 148.285156 159.019531 C 148.300781 158.617188 148.167969 158.160156 148.199219 157.800781 C 148.242188 157.183594 148.574219 156.632812 148.542969 156.066406 C 148.480469 154.871094 147.609375 154.230469 146.808594 153.550781 C 146.28125 153.105469 146.425781 153.140625 147.066406 152.769531 C 147.613281 152.457031 148.441406 151.945312 148.980469 151.640625 C 150.152344 150.980469 150.773438 150.570312 151.410156 149.992188 C 152.5 149.007812 153.503906 147.984375 154.273438 146.695312 C 155.035156 145.429688 155.4375 144.300781 156.96875 143.570312 C 157.085938 145.042969 156.777344 146.597656 156.707031 148.167969 C 156.582031 150.90625 156.570312 154.019531 156.878906 156.761719 C 156.953125 157.40625 157.160156 158.074219 157.140625 158.671875 C 157.125 159.289062 156.871094 159.949219 156.796875 160.582031 C 156.640625 161.875 156.621094 162.925781 156.796875 164.3125 C 156.910156 165.21875 156.988281 165.898438 157.230469 166.570312 C 157.496094 167.324219 158.085938 168.140625 158.703125 168.738281 C 158.792969 168.824219 159 168.878906 159.140625 169 C 159.257812 169.101562 159.296875 169.261719 159.402344 169.347656 C 159.636719 169.539062 160.074219 169.703125 160.09375 169.867188 C 160.164062 170.410156 158.800781 170.90625 158.617188 171.253906 C 158.488281 171.511719 158.472656 171.988281 158.445312 172.207031 C 158.40625 172.542969 158.492188 172.875 158.445312 173.164062 C 158.351562 173.753906 158.058594 174.246094 157.921875 174.8125 C 157.785156 175.386719 157.753906 176.015625 157.664062 176.636719 C 157.425781 178.234375 157.054688 179.765625 157.140625 181.757812 C 157.214844 183.425781 157.585938 185.023438 158.011719 186.617188 C 159.179688 191 160.894531 195.160156 162.613281 199.027344 C 163.734375 201.554688 164.835938 204.113281 166 207.011719 C 166.714844 208.789062 167.710938 210.96875 168.605469 212.914062 C 168.902344 213.558594 169.335938 214.386719 169.386719 214.910156 C 169.410156 215.167969 169.203125 215.472656 169.214844 215.777344 C 169.242188 216.757812 169.824219 216.59375 170.863281 216.386719 C 171.8125 216.195312 172.308594 216.0625 173.207031 215.777344 C 173.667969 215.632812 174.039062 215.347656 174.335938 215.429688 C 174.664062 215.523438 174.875 216.210938 175.117188 216.730469 C 175.9375 218.472656 177.484375 220.492188 177.722656 222.632812 C 177.894531 224.144531 177.597656 224.777344 177.203125 225.929688 C 176.996094 226.535156 176.898438 227.277344 176.683594 227.582031 C 176.367188 228.023438 175.914062 228.007812 175.640625 228.359375 C 175.511719 228.527344 175.265625 229.039062 175.117188 229.402344 C 174.835938 230.101562 174.769531 230.972656 174.511719 231.835938 C 174.398438 232.214844 174.179688 232.535156 174.078125 232.875 C 173.320312 235.335938 172.9375 237.5625 173.121094 240.511719 C 173.273438 242.957031 174.390625 245.40625 175.03125 248.0625 C 175.34375 249.34375 175.589844 250.6875 175.8125 252.054688 C 176.125 253.96875 176.414062 255.671875 176.507812 257.78125 C 176.554688 258.75 176.53125 259.785156 176.59375 260.820312 C 176.617188 261.160156 176.734375 261.488281 176.683594 261.777344 C 176.621094 262.105469 176.4375 262.0625 176.246094 262.382812 C 176.15625 262.539062 176.074219 262.882812 175.988281 263.078125 C 175.695312 263.757812 175.609375 264.449219 175.207031 264.988281 C 175.097656 265.128906 174.933594 265.175781 174.859375 265.335938 C 174.675781 265.71875 174.644531 266.277344 174.511719 266.808594 C 174.261719 267.792969 174.070312 268.894531 174.164062 270.277344 C 174.191406 270.667969 174.269531 271.105469 174.335938 271.496094 C 174.402344 271.867188 174.589844 272.273438 174.597656 272.625 C 174.605469 272.964844 174.371094 273.265625 174.425781 273.492188 C 174.527344 273.929688 174.984375 274.144531 175.378906 274.359375 C 175.492188 274.421875 175.644531 274.445312 175.726562 274.53125 C 176.046875 274.882812 175.925781 275.371094 176.246094 275.488281 C 176.738281 275.664062 176.882812 275.238281 177.289062 275.226562 C 177.632812 275.21875 178.082031 275.492188 178.679688 275.660156 C 179.230469 275.820312 179.859375 275.816406 180.15625 276.007812 C 180.488281 276.222656 180.3125 276.695312 180.851562 276.789062 C 181.429688 276.890625 181.378906 276.425781 181.804688 276.355469 C 182.390625 276.257812 183.492188 276.652344 184.324219 276.878906 C 186.367188 277.421875 188.113281 278.214844 190.058594 278.785156 C 190.523438 278.921875 191.269531 278.902344 191.53125 279.132812 C 191.714844 279.292969 191.632812 279.679688 191.96875 279.742188 C 192.527344 279.84375 192.390625 279.402344 192.835938 279.304688 C 193.078125 279.253906 194.464844 279.382812 194.832031 279.480469 C 195.175781 279.570312 195.417969 279.828125 195.527344 279.828125 C 195.777344 279.824219 195.894531 279.515625 196.308594 279.394531 C 196.59375 279.3125 197.296875 279.382812 197.785156 279.304688 C 198.203125 279.242188 198.527344 279.035156 198.652344 279.046875 C 198.914062 279.066406 199.261719 279.4375 199.4375 279.394531 C 199.675781 279.328125 199.65625 278.960938 199.871094 278.785156 C 200.007812 278.671875 200.347656 278.648438 200.652344 278.523438 C 200.90625 278.421875 201.136719 278.191406 201.257812 278.175781 C 201.75 278.128906 202.082031 278.628906 202.300781 278.003906 C 202.355469 277.847656 202.300781 277.765625 202.386719 277.65625 C 202.617188 277.382812 203.097656 277.320312 203.34375 277.136719 C 204.316406 276.425781 204.171875 275.863281 203.691406 274.53125 C 203.371094 273.640625 203.042969 272.847656 202.300781 272.449219 C 202.023438 272.300781 201.566406 272.226562 201.171875 272.101562 C 200.46875 271.882812 199.773438 271.65625 199 271.410156 C 198.628906 271.289062 198.214844 271.269531 197.871094 271.148438 C 197.480469 271.011719 197.113281 270.738281 196.65625 270.542969 C 196.136719 270.316406 195.597656 270.140625 195.09375 269.933594 C 194.839844 269.832031 194.457031 269.714844 194.140625 269.585938 C 193.949219 269.507812 193.808594 269.320312 193.617188 269.238281 C 193.375 269.136719 193.117188 269.164062 192.921875 269.066406 C 192.753906 268.980469 192.617188 268.738281 192.402344 268.632812 C 192.222656 268.542969 191.941406 268.636719 191.792969 268.546875 C 191.730469 268.507812 191.554688 268.328125 191.445312 268.199219 C 191.359375 268.09375 191.28125 267.828125 191.183594 267.761719 C 191.03125 267.65625 190.777344 267.773438 190.664062 267.675781 C 190.609375 267.628906 190.40625 267.460938 190.316406 267.328125 C 190.234375 267.207031 190.265625 266.992188 190.144531 266.898438 C 189.992188 266.777344 189.742188 266.835938 189.621094 266.722656 C 189.472656 266.582031 189.445312 266.300781 189.273438 266.113281 C 189.085938 265.902344 188.746094 265.867188 188.667969 265.765625 C 188.484375 265.53125 188.484375 265.148438 188.320312 264.898438 C 187.714844 265.109375 187.546875 265.144531 187.105469 264.550781 C 186.753906 264.082031 186.492188 263.605469 186.324219 262.902344 C 186.128906 262.117188 186.1875 260.800781 186.148438 259.867188 C 186.035156 257.289062 185.632812 253.9375 185.886719 250.839844 C 185.921875 250.410156 185.867188 249.972656 185.886719 249.539062 C 185.957031 247.980469 186.15625 246.59375 186.234375 244.851562 C 186.308594 243.234375 186.472656 241.585938 186.582031 240.078125 C 186.714844 238.320312 186.792969 236.707031 186.929688 235.304688 C 187.054688 234.042969 187.347656 233.1875 187.796875 232.09375 C 188.148438 231.246094 188.476562 230.832031 188.667969 229.835938 C 188.722656 229.550781 188.84375 229.070312 188.839844 229.058594 C 188.753906 228.730469 188.207031 228.707031 188.144531 228.449219 C 188.082031 228.167969 188.550781 227.644531 188.753906 227.234375 C 189.339844 226.050781 189.796875 224.613281 189.882812 222.980469 C 189.964844 221.367188 190.121094 219.671875 189.792969 218.121094 C 189.691406 217.617188 189.394531 217.21875 189.363281 216.820312 C 189.316406 216.257812 189.503906 215.542969 189.535156 214.824219 C 189.570312 213.902344 189.550781 212.695312 189.449219 211.613281 C 189.398438 211.109375 189.082031 210.324219 189.1875 210.050781 C 189.316406 209.726562 190.070312 209.59375 190.578125 209.355469 C 190.757812 209.273438 190.980469 209.160156 191.273438 209.007812 C 191.4375 208.921875 191.964844 208.671875 191.96875 208.660156 C 192.105469 208.3125 191.363281 207.523438 191.097656 207.101562 C 190.730469 206.507812 190.550781 205.867188 190.402344 205.449219 C 189.261719 202.21875 188.488281 199.90625 187.363281 196.507812 C 187.238281 196.125 186.742188 194.90625 186.84375 194.6875 C 186.933594 194.492188 188.585938 194.046875 189.273438 193.820312 C 191.84375 192.972656 194.101562 192.074219 196.65625 191.304688 C 198.433594 190.765625 200.207031 190.421875 201.78125 189.828125 C 202.589844 189.523438 203.351562 189.171875 204.125 188.875 C 204.925781 188.566406 205.832031 188.207031 206.644531 188.09375 C 206.96875 188.046875 207.320312 188.132812 207.6875 188.09375 C 208.605469 187.988281 208.539062 187.8125 208.730469 186.792969 C 208.910156 185.785156 209.023438 184.160156 209.074219 183.058594 C 209.113281 182.246094 208.847656 181.324219 209.074219 180.800781 C 209.199219 180.519531 209.800781 180.433594 210.203125 180.195312 C 210.546875 179.996094 210.894531 179.722656 211.210938 179.488281 C 210.601562 180.464844 210.335938 181.476562 209.769531 182.453125 C 209.363281 183.152344 209.234375 184.78125 209.164062 185.921875 C 209.015625 188.261719 209.234375 190.425781 209.769531 192.257812 C 209.988281 192.996094 210.25 193.6875 210.550781 194.339844 C 211.039062 195.390625 211.632812 196.402344 212.117188 197.554688 C 212.492188 198.449219 212.761719 199.390625 213.070312 200.417969 C 213.617188 202.21875 214.308594 204.058594 214.894531 206.230469 C 215.269531 207.625 215.628906 209.265625 215.9375 210.917969 C 216.0625 211.589844 216.277344 212.332031 216.199219 212.480469 C 215.992188 212.871094 215.878906 212.285156 215.589844 212.480469 C 215.359375 213.160156 215.332031 213.816406 215.070312 214.476562 C 214.957031 214.753906 214.742188 214.984375 214.632812 215.257812 C 213.953125 216.9375 214.054688 219.4375 214.546875 221.332031 C 214.605469 221.5625 214.726562 221.957031 214.722656 222.027344 C 214.695312 222.304688 214.402344 222.375 214.460938 222.632812 C 214.730469 222.691406 214.773438 222.742188 215.070312 222.808594 C 215.136719 222.824219 215.613281 222.785156 215.765625 222.894531 C 216.257812 223.261719 215.726562 224.191406 216.804688 224.023438 C 217.5 223.917969 217 223.449219 217.5 223.242188 C 217.855469 223.09375 219.003906 223.34375 219.585938 223.414062 C 219.769531 223.4375 220.226562 223.523438 220.191406 223.503906 C 220.445312 223.679688 220.296875 224.289062 220.539062 224.457031 C 220.820312 224.652344 221.140625 224.597656 221.320312 224.542969 C 221.730469 224.425781 221.769531 223.742188 221.929688 223.675781 C 222.121094 223.597656 224.019531 223.945312 224.449219 224.023438 C 226.671875 224.417969 228.148438 224.847656 230.351562 225.324219 C 230.792969 225.417969 231.3125 225.46875 231.480469 225.582031 C 231.800781 225.808594 231.675781 226.410156 232.175781 226.453125 C 232.734375 226.5 232.382812 226.015625 232.871094 225.84375 C 233.070312 225.773438 233.558594 225.824219 233.914062 225.929688 C 234.054688 225.972656 234.070312 226.089844 234.261719 226.195312 C 234.488281 226.3125 234.726562 226.246094 234.78125 226.28125 C 235.105469 226.464844 234.996094 226.738281 235.390625 226.714844 C 235.722656 226.691406 235.625 226.71875 235.824219 226.453125 C 235.914062 226.332031 235.84375 226.191406 236.085938 226.105469 C 236.316406 226.023438 237.148438 226.070312 237.300781 226.195312 C 237.398438 226.269531 237.273438 226.363281 237.472656 226.367188 C 237.839844 226.371094 237.914062 226.273438 238.257812 226.105469 C 238.425781 226.199219 238.683594 227.117188 239.210938 226.625 C 239.375 226.472656 239.210938 226.070312 239.558594 225.929688 C 239.863281 225.808594 240.152344 226.015625 240.511719 226.105469 C 240.808594 226.179688 241.226562 226.332031 241.382812 226.28125 C 241.726562 226.160156 241.449219 225.839844 241.730469 225.582031 C 242.132812 225.21875 242.832031 225.597656 243.121094 225.238281 C 242.796875 224.1875 242.597656 223.078125 241.816406 222.457031 C 241.007812 221.820312 239.523438 221.382812 238.429688 220.898438 C 238.230469 220.8125 238.011719 220.746094 237.824219 220.636719 C 237.675781 220.554688 237.546875 220.363281 237.390625 220.289062 C 236.90625 220.074219 236.265625 219.960938 235.738281 219.769531 C 235.585938 219.714844 235.46875 219.636719 235.304688 219.597656 C 235.035156 219.53125 234.773438 219.484375 234.519531 219.335938 C 234.457031 219.296875 234.335938 219.105469 234.261719 219.074219 C 233.988281 218.972656 233.660156 219.015625 233.394531 218.902344 C 233.234375 218.835938 233.144531 218.652344 232.960938 218.554688 C 232.757812 218.449219 232.507812 218.472656 232.351562 218.382812 C 232.0625 218.210938 231.804688 217.820312 231.480469 217.6875 C 231.320312 217.621094 231.183594 217.699219 231.046875 217.601562 C 230.898438 217.492188 230.734375 217.257812 230.527344 217.082031 C 230.324219 216.90625 230.070312 216.804688 229.917969 216.644531 C 229.78125 216.496094 229.800781 216.210938 229.65625 216.039062 C 229.496094 215.84375 229.160156 215.824219 229.050781 215.691406 C 228.9375 215.554688 228.898438 215.195312 228.703125 214.910156 C 228.558594 214.699219 228.292969 214.5625 228.183594 214.386719 C 227.945312 214.011719 227.800781 213.246094 227.660156 213.175781 C 227.332031 213.003906 227.183594 213.5625 226.878906 213.523438 C 226.710938 213.5 226.160156 212.789062 225.835938 212.21875 C 225.015625 210.765625 224.726562 208.519531 224.359375 206.839844 C 223.945312 204.929688 223.605469 203.078125 223.316406 200.9375 C 223.226562 200.257812 223.105469 199.5625 223.058594 198.941406 C 222.933594 197.226562 223.285156 195.3125 223.144531 193.386719 C 223 191.371094 223.070312 188.828125 222.972656 186.617188 C 222.859375 184.070312 222.726562 181.945312 223.058594 179.847656 C 223.230469 178.746094 223.332031 177.511719 223.058594 176.375 C 222.589844 176.34375 222.640625 176.824219 222.191406 176.8125 C 222.078125 175.464844 222.09375 174.597656 221.929688 173.511719 C 221.789062 172.589844 221.636719 171.933594 221.234375 171.167969 C 221.007812 170.742188 220.339844 170.265625 219.84375 169.867188 C 218.699219 168.945312 217.175781 167.890625 215.675781 167.351562 C 214.585938 166.960938 213.242188 166.765625 211.941406 166.65625 C 210.558594 166.542969 209.152344 166.414062 207.859375 166.308594 C 207.429688 166.273438 206.789062 166.449219 206.382812 166.222656 C 205.828125 165.910156 205.800781 164.050781 205.167969 163.707031 C 204.527344 163.355469 203.804688 163.839844 203.257812 164.054688 C 202.34375 164.410156 201.148438 164.457031 199.957031 164.660156 C 196.328125 165.277344 192.460938 165.988281 188.667969 166.570312 C 187.632812 166.730469 186.671875 166.730469 185.800781 167.003906 C 185.675781 167.042969 185.359375 167.171875 185.367188 167.179688 C 184.980469 167.011719 184.585938 164.578125 184.5 164.054688 C 184.121094 161.839844 183.761719 158.375 184.152344 155.632812 C 184.167969 155.515625 184.328125 154.765625 184.324219 154.769531 C 184.535156 154.542969 185.535156 154.628906 185.976562 154.59375 C 187.097656 154.492188 189.589844 153.890625 190.402344 153.8125 C 190.777344 153.777344 191.457031 153.765625 191.621094 153.8125 C 192.175781 153.96875 192.550781 154.839844 192.921875 155.113281 C 193.253906 155.359375 193.742188 155.519531 194.226562 155.632812 C 194.664062 155.738281 195.210938 155.699219 195.703125 155.894531 C 196.035156 156.027344 196.367188 156.371094 196.746094 156.675781 C 197.324219 157.144531 197.957031 157.746094 198.652344 158.238281 C 198.90625 158.417969 198.6875 158.414062 199.175781 158.585938 C 199.40625 158.667969 199.691406 158.765625 199.871094 158.585938 C 200.4375 158.015625 198.300781 156.375 197.785156 155.894531 C 197.566406 155.691406 197.003906 155.242188 197.003906 155.113281 C 197.003906 154.988281 197.492188 154.527344 197.699219 154.507812 C 198.265625 154.449219 198.695312 155.140625 199 155.375 C 199.375 155.65625 199.847656 155.921875 200.21875 156.242188 C 200.492188 156.476562 201.445312 157.59375 202.128906 157.542969 C 203.195312 157.460938 202.488281 156.421875 201.953125 155.894531 C 201.5625 155.507812 201.265625 155.253906 200.914062 154.9375 C 200.605469 154.667969 200.265625 154.316406 199.871094 153.984375 C 199.578125 153.738281 198.710938 153.351562 198.742188 153.117188 C 198.789062 152.730469 199.199219 152.714844 199.609375 152.769531 C 200.199219 152.847656 200.558594 153.375 200.996094 153.636719 C 201.265625 153.796875 201.574219 153.847656 201.78125 153.984375 C 202.210938 154.273438 202.433594 154.691406 202.996094 155.027344 C 203.464844 155.304688 204.300781 155.671875 204.472656 154.9375 C 204.570312 154.523438 204.171875 154.421875 203.953125 154.160156 C 203.78125 153.960938 203.402344 153.578125 203.429688 153.464844 C 203.507812 153.171875 204.285156 153.144531 204.558594 152.941406 C 204.5 152.988281 205.164062 152.191406 205.167969 152.164062 C 205.199219 151.773438 204.246094 150.847656 203.867188 150.601562 C 203.582031 150.417969 203.167969 150.347656 202.824219 150.167969 C 202.515625 150.003906 202.222656 149.742188 201.953125 149.648438 C 201.539062 149.492188 200.902344 149.421875 200.390625 149.300781 C 199.453125 149.070312 198.523438 148.851562 197.351562 148.953125 C 196.84375 148.996094 196.183594 149.167969 195.527344 149.300781 C 194.898438 149.425781 194.210938 149.660156 193.789062 149.648438 C 193.539062 149.640625 193.179688 149.472656 192.835938 149.386719 C 191.316406 149 189.839844 148.882812 188.234375 148.34375 C 187.828125 148.207031 186.824219 147.804688 186.753906 147.5625 C 186.65625 147.210938 187.660156 145.683594 187.796875 145.304688 C 188.488281 143.445312 188.429688 141.6875 188.320312 139.230469 C 188.203125 136.601562 187.578125 134.367188 187.015625 132.203125 C 186.824219 131.449219 186.46875 130.722656 186.410156 130.03125 C 186.3125 128.921875 186.753906 127.835938 186.582031 126.5625 C 186.511719 126.035156 186.328125 125.457031 186.148438 124.914062 C 185.980469 124.394531 185.527344 123.535156 185.539062 123.4375 C 185.597656 123.070312 186.144531 122.785156 186.496094 122.742188 C 187.535156 122.613281 188.21875 123.449219 188.753906 123.957031 C 189.695312 124.847656 191.269531 126.484375 192.75 124.914062 C 193.027344 124.613281 193.140625 124.027344 193.53125 123.785156 C 194.023438 123.472656 194.59375 123.804688 194.832031 123.261719 C 194.917969 123.070312 194.78125 122.910156 194.917969 122.828125 C 195.214844 122.652344 195.40625 122.890625 195.789062 122.742188 C 196.441406 122.488281 196.359375 121.703125 196.832031 121.613281 C 197.316406 121.519531 197.757812 122.3125 198.566406 122.132812 C 199.230469 121.984375 199.414062 120.605469 199.609375 119.703125 C 199.84375 118.621094 199.792969 117.535156 200.21875 116.929688 C 200.460938 116.578125 201.066406 116.511719 201.519531 116.144531 C 201.972656 115.78125 202.230469 115.015625 202.5625 114.410156 C 202.703125 114.152344 202.917969 113.835938 203.082031 113.542969 C 203.292969 113.171875 203.425781 112.785156 203.605469 112.675781 C 203.722656 112.601562 204.347656 112.683594 204.472656 112.5 C 204.550781 112.097656 204.246094 112.621094 204.210938 112.328125 C 204.210938 112.15625 204.449219 112.21875 204.386719 111.980469 C 204.878906 112.082031 204.519531 112.402344 204.820312 112.5 C 205.019531 112.5625 205.324219 112.425781 205.515625 112.152344 C 205.574219 112.066406 205.523438 111.8125 205.601562 111.632812 C 205.664062 111.488281 205.835938 111.359375 205.863281 111.285156 C 205.984375 110.945312 206.042969 110.601562 206.125 110.332031 C 206.300781 109.71875 206.4375 108.6875 206.296875 107.726562 C 206.261719 107.496094 206.125 107.25 206.035156 106.945312 C 205.957031 106.675781 205.964844 106.339844 205.863281 106.078125 C 205.710938 105.6875 205.359375 105.277344 205.082031 104.863281 C 204.886719 104.574219 204.78125 104.21875 204.558594 103.820312 C 204.046875 102.898438 203.304688 101.929688 202.5625 101.132812 C 202.316406 100.867188 202.132812 100.574219 201.867188 100.347656 C 201.363281 99.921875 200.710938 99.667969 200.132812 99.222656 C 199.757812 98.933594 199.53125 98.488281 199.175781 98.179688 C 198.984375 98.015625 198.65625 97.910156 198.394531 97.746094 C 198.15625 97.597656 197.925781 97.460938 197.699219 97.3125 C 197.242188 97.019531 196.886719 96.589844 196.484375 96.355469 C 195.679688 95.890625 194.601562 95.679688 193.617188 95.578125 C 193.210938 95.535156 192.863281 95.445312 192.488281 95.488281 C 192.285156 95.515625 192.078125 95.640625 191.792969 95.664062 C 190.871094 95.734375 189.859375 95.503906 189.015625 96.183594 " fill-opacity="1" fill-rule="evenodd"/></g><path fill="#000000" d="M 215.164062 151.109375 C 215.210938 152.964844 215.53125 154.6875 216.113281 156.273438 C 216.09375 156.464844 216.09375 156.625 216.078125 157.265625 C 214.695312 154.992188 214.070312 152.695312 214.550781 148.667969 C 214.648438 149.730469 214.9375 150.691406 215.164062 151.109375 Z M 218.011719 148.949219 C 218.484375 149.457031 220.570312 151.019531 221.261719 151.507812 C 221.261719 153.484375 221.699219 155.367188 221.996094 156.632812 C 221.484375 157.175781 220.132812 158.308594 219.539062 158.71875 C 218.414062 158.265625 216.707031 156.683594 216.253906 156.175781 C 216.109375 155.847656 215.394531 153.398438 215.324219 151.238281 C 215.78125 150.730469 217.304688 149.441406 218.011719 148.949219 Z M 217.515625 142.320312 C 217.214844 142.777344 217.011719 143.183594 216.953125 143.347656 C 216.644531 143.585938 216.320312 143.871094 216.191406 144 C 216.449219 143.601562 217.132812 142.683594 217.515625 142.320312 Z M 224.28125 138.429688 C 224.988281 138.558594 225.457031 138.773438 225.855469 139.007812 C 224.183594 139.953125 223.839844 140.835938 223.351562 141.703125 C 221.679688 142.265625 220.378906 142.929688 219.03125 143.839844 C 218.46875 143.664062 217.703125 143.4375 217.121094 143.3125 C 217.886719 141.75 220.042969 139.640625 224.28125 138.429688 Z M 233.207031 139.757812 C 232.625 139.703125 231.714844 139.679688 231.171875 139.71875 C 229.726562 139.15625 227.6875 138.875 226.175781 138.929688 C 225.742188 138.675781 225.484375 138.542969 224.703125 138.328125 C 227.390625 137.945312 230.007812 138.019531 233.207031 139.757812 Z M 238.28125 144.964844 C 238.355469 145.652344 238.351562 146.226562 238.316406 147.207031 C 237.878906 147.003906 236.953125 146.769531 235.863281 146.824219 C 234.789062 145.265625 233.296875 143.804688 232.207031 143.207031 C 232.261719 141.886719 232.007812 140.847656 231.371094 139.867188 C 231.824219 139.847656 232.898438 139.792969 233.496094 139.921875 C 234.480469 140.460938 236.972656 142.246094 238.28125 144.964844 Z M 239.695312 152.710938 C 239.660156 152.652344 239.597656 152.582031 239.550781 152.527344 C 239.835938 149.851562 239.308594 148.5 238.515625 147.320312 C 238.605469 146.265625 238.511719 145.863281 238.441406 145.246094 C 239.023438 146.246094 240.238281 149.320312 239.695312 152.710938 Z M 234.507812 161.152344 C 234.675781 160.804688 234.933594 160.238281 234.910156 159.507812 C 235.867188 158.152344 236.765625 156.222656 236.929688 155.195312 C 237.601562 154.777344 239.003906 153.335938 239.453125 152.710938 C 239.519531 152.773438 239.605469 152.882812 239.664062 152.984375 C 239.085938 155.773438 237.375 159.179688 234.507812 161.152344 Z M 227.71875 157.542969 C 228.230469 156.75 229.496094 154.777344 230.414062 153.003906 C 231.570312 152.769531 233.433594 152.472656 234.570312 152.019531 C 234.996094 152.746094 235.851562 154.164062 236.726562 155.167969 C 236.191406 157.011719 235.597656 158.183594 234.65625 159.46875 C 232.941406 160.320312 231.628906 160.558594 229.855469 160.703125 C 229.496094 160.257812 228.703125 158.945312 227.71875 157.542969 Z M 227.539062 144.246094 C 228.210938 143.992188 230.71875 143.609375 232.171875 143.410156 C 233.496094 144.15625 235.023438 146.042969 235.660156 146.96875 C 235.390625 147.988281 234.804688 150.730469 234.554688 151.761719 C 233.304688 152.210938 231.914062 152.492188 230.410156 152.820312 C 230.082031 152.421875 227.136719 149.714844 226.484375 149.039062 C 226.679688 147.988281 227.230469 145.363281 227.539062 144.246094 Z M 226.25 149.023438 C 224.652344 149.546875 222.136719 150.867188 221.429688 151.300781 C 220.828125 150.917969 218.921875 149.457031 218.085938 148.785156 C 218.234375 147.277344 218.84375 144.800781 219.195312 143.972656 C 219.960938 143.375 222.101562 142.339844 223.484375 141.9375 C 224.484375 142.355469 226.339844 143.609375 227.300781 144.261719 C 227.050781 145.183594 226.449219 147.804688 226.25 149.023438 Z M 226.972656 163.226562 C 225.191406 163.078125 223.328125 162.511719 222.167969 162.109375 C 221.683594 161.679688 220.296875 159.988281 219.722656 158.882812 C 220.210938 158.542969 221.484375 157.542969 222.210938 156.835938 C 223.601562 157.273438 226.425781 157.667969 227.519531 157.71875 C 227.957031 158.488281 229.324219 160.375 229.632812 160.792969 C 228.597656 162.011719 227.464844 162.828125 226.972656 163.226562 Z M 221.34375 162.25 C 221.5 162.238281 221.785156 162.25 222.027344 162.230469 C 224.28125 163.050781 226.457031 163.519531 229.34375 163.449219 C 226.007812 163.964844 223.363281 163.285156 221.34375 162.25 Z M 227.015625 163.988281 C 234.265625 163.988281 240.136719 158.117188 240.136719 150.875 C 240.136719 143.632812 234.265625 137.757812 227.015625 137.757812 C 219.769531 137.757812 213.894531 143.632812 213.894531 150.875 C 213.894531 158.117188 219.769531 163.988281 227.015625 163.988281 " fill-opacity="1" fill-rule="nonzero"/><g clip-path="url(#6120978ac9)"><path fill="#000000" d="M 187.65625 287.40625 C 132.546875 287.40625 87.90625 242.457031 87.90625 187.65625 C 87.90625 132.855469 132.546875 87.90625 187.65625 87.90625 C 242.765625 87.90625 287.40625 132.546875 287.40625 187.65625 C 287.40625 242.765625 242.457031 287.40625 187.65625 287.40625 Z M 187.65625 94.0625 C 135.933594 94.0625 94.0625 135.933594 94.0625 187.65625 C 94.0625 239.378906 135.933594 281.25 187.65625 281.25 C 239.378906 281.25 281.25 239.378906 281.25 187.65625 C 281.25 135.933594 239.070312 94.0625 187.65625 94.0625 Z M 187.65625 94.0625 " fill-opacity="1" fill-rule="nonzero"/></g><path fill="#000000" d="M 162.785156 134.359375 L 162.480469 130.449219 L 158.558594 130.144531 L 162.480469 129.84375 L 162.785156 125.929688 L 163.085938 129.84375 L 167.011719 130.144531 L 163.085938 130.449219 L 162.785156 134.359375 " fill-opacity="1" fill-rule="nonzero"/><path fill="#000000" d="M 234.855469 151.835938 L 234.554688 147.921875 L 230.628906 147.621094 L 234.554688 147.320312 L 234.855469 143.40625 L 235.160156 147.320312 L 239.082031 147.621094 L 235.160156 147.921875 L 234.855469 151.835938 " fill-opacity="1" fill-rule="nonzero"/><path fill="#000000" d="M 201.996094 128.238281 L 201.691406 124.324219 L 197.769531 124.019531 L 201.691406 123.71875 L 201.996094 119.804688 L 202.300781 123.71875 L 206.222656 124.019531 L 202.300781 124.324219 L 201.996094 128.238281 " fill-opacity="1" fill-rule="nonzero"/><path fill="#000000" d="M 254.140625 210.871094 L 253.835938 206.957031 L 249.910156 206.652344 L 253.835938 206.351562 L 254.140625 202.4375 L 254.441406 206.351562 L 258.367188 206.652344 L 254.441406 206.957031 L 254.140625 210.871094 " fill-opacity="1" fill-rule="nonzero"/><path fill="#000000" d="M 201.996094 260.949219 L 201.691406 257.035156 L 197.769531 256.734375 L 201.691406 256.429688 L 201.996094 252.515625 L 202.300781 256.429688 L 206.222656 256.734375 L 202.300781 257.035156 L 201.996094 260.949219 " fill-opacity="1" fill-rule="nonzero"/><path fill="#000000" d="M 136.761719 231.957031 L 136.457031 228.042969 L 132.535156 227.738281 L 136.457031 227.4375 L 136.761719 223.523438 L 137.0625 227.4375 L 140.988281 227.738281 L 137.0625 228.042969 L 136.761719 231.957031 " fill-opacity="1" fill-rule="nonzero"/><path fill="#000000" d="M 227.003906 247.738281 L 226.699219 243.824219 L 222.777344 243.519531 L 226.699219 243.21875 L 227.003906 239.304688 L 227.304688 243.21875 L 231.230469 243.519531 L 227.304688 243.824219 L 227.003906 247.738281 " fill-opacity="1" fill-rule="nonzero"/><path fill="#000000" d="M 121.992188 177.886719 L 121.6875 173.972656 L 117.765625 173.671875 L 121.6875 173.367188 L 121.992188 169.453125 L 122.296875 173.367188 L 126.21875 173.671875 L 122.296875 173.972656 L 121.992188 177.886719 " fill-opacity="1" fill-rule="nonzero"/><path fill="#000000" d="M 145.214844 245.042969 L 144.910156 241.128906 L 140.988281 240.824219 L 144.910156 240.523438 L 145.214844 236.609375 L 145.519531 240.523438 L 149.441406 240.824219 L 145.519531 241.128906 L 145.214844 245.042969 " fill-opacity="1" fill-rule="nonzero"/><path fill="#000000" d="M 145.695312 142.191406 L 153.386719 141.597656 L 145.695312 141.003906 L 147.398438 138.507812 L 144.855469 140.167969 L 144.261719 132.496094 L 143.667969 140.167969 L 141.125 138.507812 L 142.828125 141.003906 L 135.136719 141.597656 L 142.828125 142.191406 L 141.125 144.683594 L 143.667969 143.027344 L 144.261719 150.699219 L 144.855469 143.027344 L 147.398438 144.683594 L 145.695312 142.191406 " fill-opacity="1" fill-rule="nonzero"/><g clip-path="url(#5ff00ea1dc)"><path fill="#000000" d="M 121.726562 201.128906 L 128.132812 200.636719 L 121.726562 200.140625 L 123.144531 198.0625 L 121.027344 199.441406 L 120.535156 193.054688 L 120.039062 199.441406 L 117.921875 198.0625 L 119.339844 200.140625 L 112.933594 200.636719 L 119.339844 201.128906 L 117.921875 203.207031 L 120.039062 201.828125 L 120.535156 208.214844 L 121.027344 201.828125 L 123.144531 203.207031 L 121.726562 201.128906 " fill-opacity="1" fill-rule="nonzero"/></g><path fill="#000000" d="M 162.824219 253.640625 L 169.226562 253.148438 L 162.824219 252.652344 L 164.242188 250.574219 L 162.125 251.953125 L 161.628906 245.566406 L 161.132812 251.953125 L 159.015625 250.574219 L 160.433594 252.652344 L 154.03125 253.148438 L 160.433594 253.640625 L 159.015625 255.71875 L 161.132812 254.339844 L 161.628906 260.726562 L 162.125 254.339844 L 164.242188 255.71875 L 162.824219 253.640625 " fill-opacity="1" fill-rule="nonzero"/><path fill="#000000" d="M 240.023438 230.730469 L 246.429688 230.238281 L 240.023438 229.742188 L 241.441406 227.664062 L 239.324219 229.046875 L 238.832031 222.65625 L 238.335938 229.046875 L 236.21875 227.664062 L 237.632812 229.742188 L 231.230469 230.238281 L 237.632812 230.730469 L 236.21875 232.808594 L 238.335938 231.429688 L 238.832031 237.816406 L 239.324219 231.429688 L 241.441406 232.808594 L 240.023438 230.730469 " fill-opacity="1" fill-rule="nonzero"/><path fill="#000000" d="M 255.332031 174.59375 L 261.738281 174.101562 L 255.332031 173.605469 L 256.75 171.527344 L 254.632812 172.90625 L 254.140625 166.519531 L 253.644531 172.90625 L 251.527344 171.527344 L 252.945312 173.605469 L 246.539062 174.101562 L 252.945312 174.59375 L 251.527344 176.671875 L 253.644531 175.292969 L 254.140625 181.679688 L 254.632812 175.292969 L 256.75 176.671875 L 255.332031 174.59375 " fill-opacity="1" fill-rule="nonzero"/><path fill="#000000" d="M 220.121094 133.101562 L 226.523438 132.605469 L 220.121094 132.113281 L 221.539062 130.035156 L 219.421875 131.414062 L 218.925781 125.027344 L 218.429688 131.414062 L 216.3125 130.035156 L 217.730469 132.113281 L 211.328125 132.605469 L 217.730469 133.101562 L 216.3125 135.179688 L 218.429688 133.796875 L 218.925781 140.1875 L 219.421875 133.796875 L 221.539062 135.179688 L 220.121094 133.101562 " fill-opacity="1" fill-rule="nonzero"/><path fill="#000000" d="M 152.378906 131.378906 L 150.769531 131.71875 L 150.515625 133.335938 L 150.175781 131.734375 L 148.554688 131.480469 L 150.160156 131.140625 L 150.417969 129.523438 L 150.753906 131.125 L 152.378906 131.378906 " fill-opacity="1" fill-rule="nonzero"/><path fill="#000000" d="M 135.734375 145.664062 L 134.125 146.003906 L 133.871094 147.621094 L 133.53125 146.015625 L 131.910156 145.761719 L 133.515625 145.425781 L 133.773438 143.804688 L 134.109375 145.410156 L 135.734375 145.664062 " fill-opacity="1" fill-rule="nonzero"/><path fill="#000000" d="M 118.621094 184.941406 L 117.011719 185.277344 L 116.757812 186.898438 L 116.417969 185.292969 L 114.796875 185.039062 L 116.402344 184.703125 L 116.660156 183.082031 L 116.996094 184.6875 L 118.621094 184.941406 " fill-opacity="1" fill-rule="nonzero"/><path fill="#000000" d="M 130.042969 219.652344 L 128.4375 219.992188 L 128.179688 221.609375 L 127.84375 220.007812 L 126.21875 219.753906 L 127.828125 219.414062 L 128.082031 217.796875 L 128.421875 219.398438 L 130.042969 219.652344 " fill-opacity="1" fill-rule="nonzero"/><path fill="#000000" d="M 153.917969 249.597656 L 152.3125 249.933594 L 152.054688 251.550781 L 151.71875 249.949219 L 150.09375 249.695312 L 151.703125 249.355469 L 151.957031 247.738281 L 152.296875 249.339844 L 153.917969 249.597656 " fill-opacity="1" fill-rule="nonzero"/><path fill="#000000" d="M 192.429688 256.683594 L 190.824219 257.023438 L 190.566406 258.640625 L 190.226562 257.035156 L 188.605469 256.78125 L 190.214844 256.445312 L 190.46875 254.824219 L 190.808594 256.429688 L 192.429688 256.683594 " fill-opacity="1" fill-rule="nonzero"/><path fill="#000000" d="M 177.488281 255.722656 L 175.882812 256.0625 L 175.625 257.679688 L 175.289062 256.074219 L 173.664062 255.820312 L 175.273438 255.484375 L 175.527344 253.863281 L 175.867188 255.46875 L 177.488281 255.722656 " fill-opacity="1" fill-rule="nonzero"/><path fill="#000000" d="M 227.003906 253.117188 L 225.394531 253.453125 L 225.140625 255.070312 L 224.800781 253.46875 L 223.179688 253.214844 L 224.785156 252.875 L 225.042969 251.257812 L 225.382812 252.859375 L 227.003906 253.117188 " fill-opacity="1" fill-rule="nonzero"/><path fill="#000000" d="M 213.71875 252.46875 L 212.109375 252.804688 L 211.855469 254.425781 L 211.515625 252.820312 L 209.894531 252.566406 L 211.5 252.226562 L 211.757812 250.609375 L 212.09375 252.210938 L 213.71875 252.46875 " fill-opacity="1" fill-rule="nonzero"/><path fill="#000000" d="M 130.042969 206.605469 L 128.4375 206.941406 L 128.179688 208.5625 L 127.84375 206.957031 L 126.21875 206.703125 L 127.828125 206.363281 L 128.082031 204.746094 L 128.421875 206.347656 L 130.042969 206.605469 " fill-opacity="1" fill-rule="nonzero"/><path fill="#000000" d="M 254.140625 196.664062 L 252.53125 197.003906 L 252.273438 198.621094 L 251.9375 197.019531 L 250.316406 196.761719 L 251.921875 196.425781 L 252.175781 194.804688 L 252.515625 196.410156 L 254.140625 196.664062 " fill-opacity="1" fill-rule="nonzero"/><path fill="#000000" d="M 251.824219 217.277344 L 250.21875 217.617188 L 249.960938 219.234375 L 249.621094 217.632812 L 248 217.375 L 249.609375 217.039062 L 249.863281 215.417969 L 250.203125 217.023438 L 251.824219 217.277344 " fill-opacity="1" fill-rule="nonzero"/><path fill="#000000" d="M 249.910156 157.171875 L 248.304688 157.507812 L 248.050781 159.128906 L 247.710938 157.523438 L 246.085938 157.269531 L 247.695312 156.933594 L 247.953125 155.3125 L 248.289062 156.917969 L 249.910156 157.171875 " fill-opacity="1" fill-rule="nonzero"/><path fill="#000000" d="M 189.921875 123.988281 L 188.316406 124.324219 L 188.058594 125.945312 L 187.722656 124.339844 L 186.097656 124.085938 L 187.707031 123.746094 L 187.960938 122.128906 L 188.300781 123.734375 L 189.921875 123.988281 " fill-opacity="1" fill-rule="nonzero"/><path fill="#000000" d="M 131.957031 159.078125 L 130.347656 159.417969 L 130.09375 161.035156 L 129.753906 159.433594 L 128.132812 159.175781 L 129.738281 158.839844 L 129.996094 157.222656 L 130.335938 158.824219 L 131.957031 159.078125 " fill-opacity="1" fill-rule="nonzero"/><path fill="#000000" d="M 238.570312 240.816406 C 238.292969 240.527344 238.300781 240.070312 238.585938 239.789062 C 238.730469 239.648438 238.917969 239.578125 239.105469 239.578125 C 239.289062 239.578125 239.476562 239.648438 239.617188 239.789062 C 239.757812 239.925781 239.828125 240.113281 239.828125 240.300781 C 239.824219 240.488281 239.75 240.671875 239.601562 240.816406 C 239.308594 241.101562 238.847656 241.101562 238.570312 240.816406 " fill-opacity="1" fill-rule="nonzero"/><path fill="#000000" d="M 241.605469 223.59375 C 241.269531 223.375 241.160156 222.960938 241.347656 222.664062 C 241.535156 222.367188 241.960938 222.296875 242.300781 222.507812 C 242.636719 222.714844 242.757812 223.136719 242.566406 223.441406 C 242.375 223.746094 241.9375 223.808594 241.605469 223.59375 " fill-opacity="1" fill-rule="nonzero"/><g clip-path="url(#801a354d03)"><path fill="#000000" d="M 262.058594 210.683594 C 261.824219 210.613281 261.699219 210.359375 261.773438 210.113281 C 261.847656 209.863281 262.085938 209.710938 262.320312 209.777344 C 262.550781 209.839844 262.6875 210.101562 262.609375 210.351562 C 262.535156 210.601562 262.289062 210.75 262.058594 210.683594 " fill-opacity="1" fill-rule="nonzero"/></g><path fill="#000000" d="M 260.4375 193.136719 C 260.195312 193.125 260.015625 192.917969 260.023438 192.675781 C 260.035156 192.433594 260.234375 192.242188 260.476562 192.253906 C 260.71875 192.265625 260.90625 192.472656 260.894531 192.714844 C 260.886719 192.960938 260.675781 193.148438 260.4375 193.136719 " fill-opacity="1" fill-rule="nonzero"/><path fill="#000000" d="M 226.851562 237.039062 C 226.703125 236.851562 226.710938 236.59375 226.871094 236.464844 C 227.035156 236.332031 227.289062 236.378906 227.441406 236.566406 C 227.59375 236.75 227.585938 237.007812 227.421875 237.140625 C 227.257812 237.273438 227.003906 237.226562 226.851562 237.039062 " fill-opacity="1" fill-rule="nonzero"/><path fill="#000000" d="M 231.8125 236.058594 C 231.746094 235.988281 231.742188 235.878906 231.808594 235.816406 C 231.875 235.753906 231.984375 235.765625 232.050781 235.835938 C 232.121094 235.910156 232.125 236.019531 232.054688 236.082031 C 231.988281 236.144531 231.878906 236.132812 231.8125 236.058594 " fill-opacity="1" fill-rule="nonzero"/><path fill="#000000" d="M 248.933594 231.03125 C 248.851562 230.972656 248.832031 230.859375 248.890625 230.773438 C 248.953125 230.6875 249.066406 230.664062 249.148438 230.722656 C 249.230469 230.777344 249.25 230.894531 249.191406 230.980469 C 249.132812 231.066406 249.015625 231.089844 248.933594 231.03125 " fill-opacity="1" fill-rule="nonzero"/><path fill="#000000" d="M 248.074219 208.441406 C 247.976562 208.410156 247.921875 208.316406 247.949219 208.230469 C 247.976562 208.148438 248.074219 208.105469 248.171875 208.136719 C 248.265625 208.164062 248.320312 208.257812 248.292969 208.34375 C 248.269531 208.429688 248.167969 208.472656 248.074219 208.441406 " fill-opacity="1" fill-rule="nonzero"/><path fill="#000000" d="M 257.707031 197.5625 C 257.605469 197.550781 257.535156 197.460938 257.546875 197.363281 C 257.558594 197.265625 257.648438 197.195312 257.746094 197.207031 C 257.847656 197.21875 257.917969 197.308594 257.90625 197.40625 C 257.894531 197.503906 257.804688 197.574219 257.707031 197.5625 " fill-opacity="1" fill-rule="nonzero"/><path fill="#000000" d="M 257.898438 214.683594 C 257.804688 214.648438 257.757812 214.542969 257.796875 214.445312 C 257.832031 214.347656 257.9375 214.296875 258.03125 214.332031 C 258.125 214.363281 258.171875 214.472656 258.136719 214.570312 C 258.101562 214.667969 257.992188 214.71875 257.898438 214.683594 " fill-opacity="1" fill-rule="nonzero"/><path fill="#000000" d="M 179.296875 260.351562 C 179.320312 260.15625 179.425781 259.988281 179.574219 259.875 C 179.71875 259.761719 179.910156 259.703125 180.109375 259.722656 C 180.507812 259.769531 180.796875 260.128906 180.753906 260.523438 C 180.710938 260.917969 180.347656 261.203125 179.941406 261.15625 C 179.734375 261.132812 179.5625 261.03125 179.445312 260.886719 C 179.328125 260.742188 179.269531 260.550781 179.296875 260.351562 " fill-opacity="1" fill-rule="nonzero"/><path fill="#000000" d="M 194.683594 251.96875 C 194.667969 251.769531 194.722656 251.585938 194.824219 251.445312 C 194.875 251.375 194.9375 251.316406 195.011719 251.273438 C 195.082031 251.230469 195.164062 251.199219 195.253906 251.1875 C 195.601562 251.148438 195.921875 251.4375 195.96875 251.832031 C 196.015625 252.226562 195.761719 252.582031 195.402344 252.625 C 195.316406 252.632812 195.226562 252.625 195.144531 252.59375 C 195.0625 252.566406 194.988281 252.519531 194.925781 252.460938 C 194.792969 252.339844 194.703125 252.167969 194.683594 251.96875 " fill-opacity="1" fill-rule="nonzero"/><path fill="#000000" d="M 217.554688 259.875 C 217.464844 259.652344 217.582031 259.390625 217.824219 259.292969 C 218.0625 259.195312 218.335938 259.296875 218.429688 259.515625 C 218.523438 259.738281 218.402344 259.996094 218.160156 260.097656 C 217.917969 260.195312 217.644531 260.097656 217.554688 259.875 " fill-opacity="1" fill-rule="nonzero"/><path fill="#000000" d="M 230.300781 247.675781 C 230.160156 247.480469 230.207031 247.203125 230.402344 247.0625 C 230.597656 246.917969 230.875 246.960938 231.015625 247.15625 C 231.160156 247.347656 231.113281 247.625 230.914062 247.769531 C 230.714844 247.914062 230.441406 247.871094 230.300781 247.675781 " fill-opacity="1" fill-rule="nonzero"/><path fill="#000000" d="M 174.941406 248.863281 C 174.996094 248.628906 175.203125 248.476562 175.40625 248.519531 C 175.609375 248.5625 175.730469 248.789062 175.679688 249.023438 C 175.632812 249.257812 175.425781 249.414062 175.21875 249.367188 C 175.011719 249.324219 174.890625 249.097656 174.941406 248.863281 " fill-opacity="1" fill-rule="nonzero"/><path fill="#000000" d="M 178.800781 252.121094 C 178.816406 252.023438 178.898438 251.953125 178.988281 251.964844 C 179.078125 251.976562 179.140625 252.070312 179.125 252.167969 C 179.109375 252.265625 179.023438 252.335938 178.933594 252.324219 C 178.84375 252.3125 178.785156 252.21875 178.800781 252.121094 " fill-opacity="1" fill-rule="nonzero"/><g clip-path="url(#c2b8e65d04)"><path fill="#000000" d="M 193.421875 262.324219 C 193.417969 262.222656 193.496094 262.136719 193.597656 262.128906 C 193.703125 262.125 193.792969 262.199219 193.800781 262.296875 C 193.804688 262.398438 193.726562 262.484375 193.625 262.492188 C 193.519531 262.5 193.429688 262.421875 193.421875 262.324219 " fill-opacity="1" fill-rule="nonzero"/></g><path fill="#000000" d="M 210.59375 247.570312 C 210.558594 247.476562 210.597656 247.375 210.679688 247.34375 C 210.761719 247.3125 210.855469 247.363281 210.894531 247.457031 C 210.929688 247.550781 210.890625 247.652344 210.808594 247.683594 C 210.726562 247.714844 210.628906 247.664062 210.59375 247.570312 " fill-opacity="1" fill-rule="nonzero"/><path fill="#000000" d="M 225.128906 248.300781 C 225.074219 248.214844 225.101562 248.105469 225.183594 248.054688 C 225.269531 248 225.378906 248.027344 225.429688 248.113281 C 225.484375 248.199219 225.460938 248.308594 225.375 248.363281 C 225.292969 248.414062 225.179688 248.386719 225.128906 248.300781 " fill-opacity="1" fill-rule="nonzero"/><path fill="#000000" d="M 211.824219 259.125 C 211.792969 259.027344 211.847656 258.925781 211.949219 258.894531 C 212.046875 258.863281 212.152344 258.914062 212.183594 259.007812 C 212.21875 259.101562 212.164062 259.207031 212.0625 259.238281 C 211.964844 259.269531 211.855469 259.21875 211.824219 259.125 " fill-opacity="1" fill-rule="nonzero"/><path fill="#000000" d="M 127.019531 226.300781 C 127.359375 226.09375 127.808594 226.203125 128.019531 226.542969 C 128.234375 226.882812 128.132812 227.332031 127.796875 227.542969 C 127.457031 227.757812 127.007812 227.648438 126.792969 227.300781 C 126.574219 226.953125 126.675781 226.503906 127.019531 226.300781 " fill-opacity="1" fill-rule="nonzero"/><path fill="#000000" d="M 143.1875 233.0625 C 143.476562 232.789062 143.90625 232.765625 144.152344 233.019531 C 144.398438 233.273438 144.375 233.699219 144.09375 233.980469 C 143.816406 234.265625 143.375 234.292969 143.125 234.03125 C 142.871094 233.773438 142.902344 233.339844 143.1875 233.0625 " fill-opacity="1" fill-rule="nonzero"/><path fill="#000000" d="M 151.25 255.828125 C 151.367188 255.621094 151.644531 255.550781 151.871094 255.679688 C 152.097656 255.804688 152.1875 256.078125 152.074219 256.289062 C 151.957031 256.5 151.679688 256.566406 151.449219 256.4375 C 151.222656 256.3125 151.132812 256.039062 151.25 255.828125 " fill-opacity="1" fill-rule="nonzero"/><path fill="#000000" d="M 168.757812 258.183594 C 168.824219 257.949219 169.066406 257.820312 169.300781 257.882812 C 169.535156 257.945312 169.675781 258.183594 169.613281 258.417969 C 169.550781 258.648438 169.304688 258.785156 169.066406 258.722656 C 168.828125 258.65625 168.691406 258.414062 168.757812 258.183594 " fill-opacity="1" fill-rule="nonzero"/><path fill="#000000" d="M 133.3125 215.742188 C 133.53125 215.640625 133.78125 215.703125 133.871094 215.890625 C 133.964844 216.074219 133.863281 216.3125 133.648438 216.417969 C 133.433594 216.527344 133.183594 216.460938 133.089844 216.273438 C 132.996094 216.085938 133.09375 215.847656 133.3125 215.742188 " fill-opacity="1" fill-rule="nonzero"/><path fill="#000000" d="M 133.167969 220.78125 C 133.253906 220.730469 133.359375 220.757812 133.40625 220.832031 C 133.449219 220.910156 133.417969 221.011719 133.332031 221.0625 C 133.242188 221.113281 133.136719 221.09375 133.089844 221.011719 C 133.042969 220.9375 133.078125 220.832031 133.167969 220.78125 " fill-opacity="1" fill-rule="nonzero"/><path fill="#000000" d="M 134.289062 238.550781 C 134.363281 238.480469 134.480469 238.488281 134.550781 238.5625 C 134.621094 238.640625 134.621094 238.757812 134.546875 238.824219 C 134.472656 238.890625 134.355469 238.886719 134.285156 238.808594 C 134.210938 238.734375 134.214844 238.617188 134.289062 238.550781 " fill-opacity="1" fill-rule="nonzero"/><path fill="#000000" d="M 156.570312 242.734375 C 156.621094 242.648438 156.722656 242.617188 156.800781 242.660156 C 156.875 242.703125 156.894531 242.8125 156.84375 242.898438 C 156.792969 242.984375 156.691406 243.015625 156.613281 242.972656 C 156.539062 242.925781 156.515625 242.820312 156.570312 242.734375 " fill-opacity="1" fill-rule="nonzero"/><path fill="#000000" d="M 165.042969 254.539062 C 165.078125 254.445312 165.179688 254.394531 165.273438 254.425781 C 165.367188 254.460938 165.414062 254.5625 165.378906 254.65625 C 165.347656 254.75 165.242188 254.800781 165.148438 254.769531 C 165.058594 254.734375 165.007812 254.632812 165.042969 254.539062 " fill-opacity="1" fill-rule="nonzero"/><path fill="#000000" d="M 148.273438 250.890625 C 148.328125 250.808594 148.441406 250.785156 148.527344 250.84375 C 148.617188 250.898438 148.644531 251.015625 148.589844 251.097656 C 148.535156 251.183594 148.417969 251.203125 148.332031 251.148438 C 148.242188 251.089844 148.21875 250.976562 148.273438 250.890625 " fill-opacity="1" fill-rule="nonzero"/><path fill="#000000" d="M 121.113281 164.292969 C 121.300781 164.363281 121.441406 164.503906 121.519531 164.667969 C 121.597656 164.839844 121.613281 165.039062 121.546875 165.226562 C 121.414062 165.605469 121 165.804688 120.621094 165.675781 C 120.242188 165.546875 120.046875 165.125 120.183594 164.738281 C 120.253906 164.546875 120.390625 164.398438 120.558594 164.320312 C 120.730469 164.238281 120.925781 164.222656 121.113281 164.292969 " fill-opacity="1" fill-rule="nonzero"/><path fill="#000000" d="M 125.886719 181.117188 C 126.28125 181.167969 126.574219 181.492188 126.53125 181.839844 C 126.492188 182.1875 126.136719 182.4375 125.742188 182.394531 C 125.34375 182.355469 125.054688 182.03125 125.097656 181.671875 C 125.136719 181.3125 125.492188 181.066406 125.886719 181.117188 " fill-opacity="1" fill-rule="nonzero"/><g clip-path="url(#bb4eb288ae)"><path fill="#000000" d="M 113.085938 201.601562 C 113.324219 201.5625 113.550781 201.738281 113.589844 201.992188 C 113.632812 202.25 113.476562 202.488281 113.238281 202.53125 C 113 202.574219 112.773438 202.398438 112.730469 202.140625 C 112.6875 201.882812 112.847656 201.640625 113.085938 201.601562 " fill-opacity="1" fill-rule="nonzero"/></g><path fill="#000000" d="M 122.15625 216.726562 C 122.378906 216.632812 122.632812 216.742188 122.726562 216.964844 C 122.824219 217.1875 122.722656 217.445312 122.5 217.539062 C 122.28125 217.636719 122.019531 217.53125 121.921875 217.304688 C 121.828125 217.078125 121.933594 216.816406 122.15625 216.726562 " fill-opacity="1" fill-rule="nonzero"/><path fill="#000000" d="M 133.3125 162.636719 C 133.527344 162.738281 133.632812 162.976562 133.546875 163.164062 C 133.457031 163.351562 133.210938 163.417969 132.992188 163.316406 C 132.773438 163.214844 132.667969 162.980469 132.757812 162.789062 C 132.847656 162.601562 133.09375 162.53125 133.3125 162.636719 " fill-opacity="1" fill-rule="nonzero"/><path fill="#000000" d="M 129.269531 165.65625 C 129.363281 165.691406 129.410156 165.789062 129.375 165.875 C 129.34375 165.957031 129.242188 165.996094 129.148438 165.960938 C 129.054688 165.925781 129.003906 165.824219 129.039062 165.742188 C 129.074219 165.65625 129.175781 165.621094 129.269531 165.65625 " fill-opacity="1" fill-rule="nonzero"/><path fill="#000000" d="M 116.042969 177.609375 C 116.144531 177.625 116.210938 177.71875 116.195312 177.820312 C 116.175781 177.921875 116.082031 177.992188 115.984375 177.980469 C 115.882812 177.964844 115.816406 177.867188 115.835938 177.765625 C 115.851562 177.664062 115.945312 177.589844 116.042969 177.609375 " fill-opacity="1" fill-rule="nonzero"/><path fill="#000000" d="M 126.664062 197.589844 C 126.765625 197.578125 126.855469 197.636719 126.867188 197.726562 C 126.878906 197.8125 126.808594 197.894531 126.710938 197.90625 C 126.609375 197.921875 126.519531 197.863281 126.507812 197.773438 C 126.496094 197.6875 126.566406 197.605469 126.664062 197.589844 " fill-opacity="1" fill-rule="nonzero"/><path fill="#000000" d="M 122.691406 211.558594 C 122.785156 211.527344 122.890625 211.574219 122.921875 211.667969 C 122.957031 211.761719 122.90625 211.863281 122.808594 211.894531 C 122.714844 211.925781 122.613281 211.878906 122.578125 211.785156 C 122.546875 211.691406 122.597656 211.589844 122.691406 211.558594 " fill-opacity="1" fill-rule="nonzero"/><path fill="#000000" d="M 115.097656 196.203125 C 115.199219 196.191406 115.289062 196.269531 115.296875 196.375 C 115.304688 196.476562 115.234375 196.570312 115.132812 196.578125 C 115.035156 196.589844 114.945312 196.511719 114.9375 196.410156 C 114.925781 196.304688 115 196.210938 115.097656 196.203125 " fill-opacity="1" fill-rule="nonzero"/><path fill="#000000" d="M 166.039062 121.035156 C 166.101562 121.222656 166.082031 121.421875 165.996094 121.585938 C 165.914062 121.75 165.765625 121.878906 165.574219 121.949219 C 165.199219 122.082031 164.78125 121.882812 164.648438 121.507812 C 164.515625 121.132812 164.722656 120.71875 165.109375 120.582031 C 165.300781 120.515625 165.503906 120.535156 165.671875 120.617188 C 165.84375 120.699219 165.976562 120.84375 166.039062 121.035156 " fill-opacity="1" fill-rule="nonzero"/><path fill="#000000" d="M 155.828125 135.242188 C 156.035156 135.582031 155.960938 136.011719 155.660156 136.195312 C 155.363281 136.382812 154.945312 136.261719 154.730469 135.925781 C 154.515625 135.589844 154.589844 135.164062 154.898438 134.972656 C 155.203125 134.78125 155.621094 134.902344 155.828125 135.242188 " fill-opacity="1" fill-rule="nonzero"/><path fill="#000000" d="M 131.789062 138.039062 C 131.96875 138.203125 131.976562 138.488281 131.804688 138.683594 C 131.632812 138.875 131.347656 138.902344 131.164062 138.742188 C 130.984375 138.585938 130.976562 138.296875 131.152344 138.101562 C 131.324219 137.90625 131.613281 137.878906 131.789062 138.039062 " fill-opacity="1" fill-rule="nonzero"/><path fill="#000000" d="M 125.597656 154.535156 C 125.808594 154.652344 125.882812 154.917969 125.765625 155.128906 C 125.648438 155.34375 125.386719 155.425781 125.171875 155.3125 C 124.960938 155.199219 124.878906 154.929688 125 154.714844 C 125.117188 154.5 125.386719 154.421875 125.597656 154.535156 " fill-opacity="1" fill-rule="nonzero"/><path fill="#000000" d="M 174.941406 129.515625 C 174.996094 129.75 174.875 129.972656 174.675781 130.023438 C 174.472656 130.070312 174.265625 129.921875 174.207031 129.6875 C 174.152344 129.453125 174.269531 129.226562 174.476562 129.175781 C 174.679688 129.121094 174.890625 129.28125 174.941406 129.515625 " fill-opacity="1" fill-rule="nonzero"/><path fill="#000000" d="M 170.054688 128.246094 C 170.085938 128.339844 170.039062 128.4375 169.953125 128.464844 C 169.863281 128.488281 169.769531 128.433594 169.742188 128.335938 C 169.710938 128.242188 169.757812 128.144531 169.84375 128.117188 C 169.933594 128.089844 170.027344 128.148438 170.054688 128.246094 " fill-opacity="1" fill-rule="nonzero"/><path fill="#000000" d="M 152.441406 125.378906 C 152.492188 125.464844 152.457031 125.574219 152.367188 125.625 C 152.277344 125.675781 152.164062 125.648438 152.113281 125.5625 C 152.0625 125.472656 152.097656 125.363281 152.1875 125.3125 C 152.28125 125.261719 152.394531 125.289062 152.441406 125.378906 " fill-opacity="1" fill-rule="nonzero"/><path fill="#000000" d="M 143.410156 146.121094 C 143.480469 146.1875 143.488281 146.296875 143.429688 146.359375 C 143.371094 146.425781 143.261719 146.421875 143.191406 146.351562 C 143.117188 146.285156 143.105469 146.175781 143.167969 146.109375 C 143.226562 146.042969 143.335938 146.050781 143.410156 146.121094 " fill-opacity="1" fill-rule="nonzero"/><path fill="#000000" d="M 129.984375 151.738281 C 130.066406 151.792969 130.09375 151.902344 130.042969 151.984375 C 129.988281 152.070312 129.878906 152.09375 129.792969 152.039062 C 129.707031 151.984375 129.683594 151.875 129.734375 151.792969 C 129.789062 151.707031 129.898438 151.683594 129.984375 151.738281 " fill-opacity="1" fill-rule="nonzero"/><path fill="#000000" d="M 137.277344 136.242188 C 137.347656 136.316406 137.34375 136.433594 137.269531 136.503906 C 137.195312 136.578125 137.078125 136.578125 137.007812 136.507812 C 136.9375 136.4375 136.941406 136.320312 137.015625 136.246094 C 137.089844 136.171875 137.207031 136.171875 137.277344 136.242188 " fill-opacity="1" fill-rule="nonzero"/><path fill="#000000" d="M 227.949219 129.105469 C 227.730469 129.441406 227.28125 129.53125 226.945312 129.3125 C 226.605469 129.101562 226.5 128.65625 226.710938 128.316406 C 226.921875 127.980469 227.375 127.882812 227.726562 128.097656 C 228.070312 128.320312 228.167969 128.773438 227.949219 129.105469 " fill-opacity="1" fill-rule="nonzero"/><path fill="#000000" d="M 210.445312 129.980469 C 210.308594 130.351562 209.929688 130.558594 209.597656 130.445312 C 209.265625 130.328125 209.101562 129.929688 209.230469 129.550781 C 209.359375 129.175781 209.742188 128.964844 210.082031 129.085938 C 210.421875 129.207031 210.585938 129.605469 210.445312 129.980469 " fill-opacity="1" fill-rule="nonzero"/><g clip-path="url(#5d2ea7bc2c)"><path fill="#000000" d="M 193.261719 112.992188 C 193.25 113.230469 193.027344 113.414062 192.769531 113.394531 C 192.511719 113.378906 192.3125 113.175781 192.324219 112.9375 C 192.332031 112.699219 192.554688 112.507812 192.816406 112.527344 C 193.078125 112.542969 193.277344 112.75 193.261719 112.992188 " fill-opacity="1" fill-rule="nonzero"/></g><path fill="#000000" d="M 176.484375 118.449219 C 176.523438 118.683594 176.359375 118.910156 176.121094 118.949219 C 175.882812 118.984375 175.652344 118.835938 175.609375 118.601562 C 175.566406 118.363281 175.726562 118.128906 175.96875 118.09375 C 176.214844 118.050781 176.441406 118.210938 176.484375 118.449219 " fill-opacity="1" fill-rule="nonzero"/><path fill="#000000" d="M 226.851562 141.339844 C 226.703125 141.527344 226.449219 141.574219 226.289062 141.445312 C 226.125 141.316406 226.109375 141.0625 226.257812 140.871094 C 226.40625 140.683594 226.664062 140.628906 226.828125 140.761719 C 226.992188 140.894531 227.003906 141.152344 226.851562 141.339844 " fill-opacity="1" fill-rule="nonzero"/><path fill="#000000" d="M 224.796875 136.730469 C 224.742188 136.816406 224.636719 136.839844 224.558594 136.789062 C 224.484375 136.738281 224.472656 136.628906 224.527344 136.546875 C 224.585938 136.464844 224.691406 136.4375 224.765625 136.488281 C 224.839844 136.539062 224.855469 136.648438 224.796875 136.730469 " fill-opacity="1" fill-rule="nonzero"/><path fill="#000000" d="M 216.078125 121.195312 C 216.042969 121.289062 215.933594 121.332031 215.835938 121.292969 C 215.742188 121.253906 215.691406 121.148438 215.730469 121.054688 C 215.765625 120.960938 215.875 120.917969 215.972656 120.957031 C 216.070312 120.996094 216.117188 121.105469 216.078125 121.195312 " fill-opacity="1" fill-rule="nonzero"/><path fill="#000000" d="M 194.191406 127.089844 C 194.183594 127.1875 194.105469 127.265625 194.019531 127.253906 C 193.929688 127.25 193.863281 127.160156 193.875 127.0625 C 193.882812 126.960938 193.960938 126.886719 194.050781 126.894531 C 194.136719 126.902344 194.203125 126.988281 194.191406 127.089844 " fill-opacity="1" fill-rule="nonzero"/><path fill="#000000" d="M 181.410156 120.125 C 181.421875 120.222656 181.351562 120.3125 181.253906 120.324219 C 181.15625 120.335938 181.066406 120.261719 181.054688 120.164062 C 181.046875 120.066406 181.117188 119.976562 181.214844 119.964844 C 181.3125 119.953125 181.402344 120.023438 181.410156 120.125 " fill-opacity="1" fill-rule="nonzero"/><path fill="#000000" d="M 198.097656 116.136719 C 198.085938 116.238281 197.992188 116.304688 197.886719 116.292969 C 197.785156 116.28125 197.710938 116.191406 197.722656 116.09375 C 197.734375 115.992188 197.828125 115.921875 197.933594 115.933594 C 198.039062 115.945312 198.109375 116.039062 198.097656 116.136719 " fill-opacity="1" fill-rule="nonzero"/><path fill="#000000" d="M 260.226562 182.414062 C 260.027344 182.433594 259.839844 182.367188 259.695312 182.25 C 259.554688 182.128906 259.460938 181.957031 259.4375 181.757812 C 259.390625 181.363281 259.675781 181 260.074219 180.957031 C 260.46875 180.910156 260.828125 181.203125 260.875 181.609375 C 260.898438 181.8125 260.832031 182.003906 260.714844 182.152344 C 260.597656 182.296875 260.425781 182.394531 260.226562 182.414062 " fill-opacity="1" fill-rule="nonzero"/><path fill="#000000" d="M 248.628906 169.308594 C 248.4375 169.371094 248.246094 169.359375 248.085938 169.292969 C 247.925781 169.222656 247.796875 169.097656 247.738281 168.933594 C 247.621094 168.601562 247.832031 168.226562 248.207031 168.089844 C 248.582031 167.957031 248.984375 168.125 249.105469 168.464844 C 249.167969 168.632812 249.144531 168.8125 249.054688 168.96875 C 248.964844 169.121094 248.816406 169.246094 248.628906 169.308594 " fill-opacity="1" fill-rule="nonzero"/><path fill="#000000" d="M 251.238281 145.3125 C 251.039062 145.449219 250.761719 145.386719 250.613281 145.179688 C 250.460938 144.96875 250.496094 144.6875 250.691406 144.546875 C 250.886719 144.402344 251.167969 144.460938 251.324219 144.671875 C 251.476562 144.886719 251.433594 145.175781 251.238281 145.3125 " fill-opacity="1" fill-rule="nonzero"/><path fill="#000000" d="M 236.484375 135.636719 C 236.324219 135.8125 236.046875 135.828125 235.863281 135.667969 C 235.683594 135.507812 235.664062 135.230469 235.824219 135.046875 C 235.980469 134.867188 236.257812 134.851562 236.441406 135.015625 C 236.625 135.179688 236.644531 135.457031 236.484375 135.636719 " fill-opacity="1" fill-rule="nonzero"/><path fill="#000000" d="M 249.957031 189.1875 C 249.714844 189.1875 249.519531 189.019531 249.515625 188.8125 C 249.511719 188.605469 249.707031 188.4375 249.949219 188.433594 C 250.1875 188.429688 250.386719 188.597656 250.390625 188.808594 C 250.390625 189.019531 250.199219 189.191406 249.957031 189.1875 " fill-opacity="1" fill-rule="nonzero"/><path fill="#000000" d="M 252.285156 184.707031 C 252.183594 184.714844 252.097656 184.648438 252.09375 184.558594 C 252.085938 184.46875 252.164062 184.390625 252.261719 184.382812 C 252.363281 184.375 252.449219 184.441406 252.453125 184.53125 C 252.460938 184.625 252.382812 184.703125 252.285156 184.707031 " fill-opacity="1" fill-rule="nonzero"/><path fill="#000000" d="M 259.027344 168.222656 C 258.929688 168.253906 258.828125 168.195312 258.796875 168.097656 C 258.769531 167.996094 258.820312 167.890625 258.917969 167.863281 C 259.015625 167.832031 259.117188 167.890625 259.144531 167.992188 C 259.175781 168.089844 259.121094 168.195312 259.027344 168.222656 " fill-opacity="1" fill-rule="nonzero"/><path fill="#000000" d="M 240.765625 154.824219 C 240.679688 154.878906 240.574219 154.867188 240.527344 154.792969 C 240.476562 154.71875 240.507812 154.613281 240.589844 154.558594 C 240.671875 154.503906 240.78125 154.519531 240.828125 154.589844 C 240.878906 154.664062 240.847656 154.769531 240.765625 154.824219 " fill-opacity="1" fill-rule="nonzero"/><path fill="#000000" d="M 238.246094 140.523438 C 238.175781 140.59375 238.058594 140.59375 237.992188 140.523438 C 237.921875 140.453125 237.925781 140.339844 237.996094 140.269531 C 238.066406 140.199219 238.179688 140.199219 238.25 140.269531 C 238.320312 140.339844 238.316406 140.453125 238.246094 140.523438 " fill-opacity="1" fill-rule="nonzero"/><path fill="#000000" d="M 251.785156 151.046875 C 251.699219 151.097656 251.585938 151.066406 251.53125 150.980469 C 251.476562 150.890625 251.5 150.777344 251.585938 150.722656 C 251.671875 150.671875 251.785156 150.699219 251.839844 150.789062 C 251.898438 150.878906 251.871094 150.992188 251.785156 151.046875 " fill-opacity="1" fill-rule="nonzero"/></svg>